<?xml version="1.0" standalone="no"?><!DOCTYPE svg PUBLIC "-//W3C//DTD SVG 1.1//EN" "http://www.w3.org/Graphics/SVG/1.1/DTD/svg11.dtd"><svg t="1498060915037" class="icon" style="" viewBox="0 0 1024 1024" version="1.1" xmlns="http://www.w3.org/2000/svg" p-id="995" xmlns:xlink="http://www.w3.org/1999/xlink" width="200" height="200"><defs><style type="text/css"></style></defs><path d="M83.617 654.65c-26.262 26.265-26.262 68.847 0.003 95.112 26.258 26.265 68.847 26.265 95.112 0l292.187-292.19c11.76-9.185 26.285-14.298 41.362-14.298 15.078 0 29.604 5.116 41.366 14.301l291.626 291.627c26.265 26.265 68.847 26.265 95.112 0 26.266-26.265 26.266-68.847 0-95.112l-380.548-380.548c-12.612-12.613-29.718-19.697-47.556-19.697-17.839 0-34.944 7.084-47.558 19.696l-381.107 381.108z" p-id="996" fill="#8a8a8a"></path></svg>