<?xml version="1.0" standalone="no"?><!DOCTYPE svg PUBLIC "-//W3C//DTD SVG 1.1//EN" "http://www.w3.org/Graphics/SVG/1.1/DTD/svg11.dtd"><svg t="1498128355743" class="icon" style="" viewBox="0 0 1024 1024" version="1.1" xmlns="http://www.w3.org/2000/svg" p-id="4967" xmlns:xlink="http://www.w3.org/1999/xlink" width="200" height="200" fill="red"><defs><style type="text/css"></style></defs><path d="M512 1024C229.216 1024 0 794.784 0 512S229.216 0 512 0s512 229.216 512 512S794.784 1024 512 1024zM512 64C264.56 64 64 264.56 64 512s200.56 448 448 448 448-200.56 448-448S759.44 64 512 64zM698.816 768.936 512 582.064 325.16 768.936l-70.096-70.128L441.936 512 255.064 325.144l70.096-70.08L512 441.92l186.816-186.856 70.128 70.08L582.064 512l186.872 186.816L698.816 768.936z" p-id="4968" fill="#bfbfbf"></path></svg>