<?xml version="1.0" standalone="no"?><!DOCTYPE svg PUBLIC "-//W3C//DTD SVG 1.1//EN" "http://www.w3.org/Graphics/SVG/1.1/DTD/svg11.dtd"><svg t="1498127246268" class="icon" style="" viewBox="0 0 1024 1024" version="1.1" xmlns="http://www.w3.org/2000/svg" p-id="3707" xmlns:xlink="http://www.w3.org/1999/xlink" width="200" height="200" fill="white"><defs><style type="text/css"></style></defs><path d="M812.689774 210.214617c-174.598649-174.589443-458.615944-174.589443-633.212547 0-174.589443 174.59558-174.589443 458.615944 0 633.210501 174.59558 174.590466 458.613898 174.590466 633.212547 0C987.277171 668.830561 987.277171 384.810198 812.689774 210.214617L812.689774 210.214617zM748.563437 686.407353c1.824991 1.758498 2.736464 4.102138 2.736464 6.511249 0 2.408088-0.911473 4.688304-2.736464 6.510226L668.561518 779.430745c-1.890462 1.892507-4.164539 2.672016-6.511249 2.800911-2.407065-0.128895-4.686258-0.909427-6.575696-2.800911l-159.357315-159.615105L336.625934 779.237403c-1.822945 1.758498-4.166585 2.672016-6.511249 2.672016-2.408088 0-4.688304-0.914541-6.575696-2.672016l-79.937471-80.070458c-1.88637-1.758498-2.736464-4.166585-2.736464-6.506134 0-2.408088 0.850094-4.688304 2.670993-6.511249l159.55168-159.4279L243.730414 367.297854c-1.821922-1.821922-2.665878-4.101115-2.665878-6.511249 0-2.344663 0.843956-4.688304 2.731349-6.575696l80.007033-79.937471c1.822945-1.821922 4.102138-2.735441 6.575696-2.735441 2.409111 0 4.684212 0.914541 6.441686 2.670993l159.4279 159.55168 7.225287-7.22631 152.2599-152.195453c1.895576-1.823968 4.105207-2.736464 6.513295-2.736464 2.407065 0 4.689327 0.912496 6.511249 2.736464l80.003964 80.070458c1.753383 1.753383 2.66997 4.097023 2.66997 6.570581 0 2.344663-0.844979 4.623856-2.66997 6.512272L589.205099 526.854649 748.563437 686.407353 748.563437 686.407353zM748.563437 686.407353" p-id="3708" fill="#8a8a8a"></path></svg>