<?xml version="1.0" standalone="no"?><!DOCTYPE svg PUBLIC "-//W3C//DTD SVG 1.1//EN" "http://www.w3.org/Graphics/SVG/1.1/DTD/svg11.dtd"><svg t="1498279692046" class="icon" style="" viewBox="0 0 1024 1024" version="1.1" xmlns="http://www.w3.org/2000/svg" p-id="3932" xmlns:xlink="http://www.w3.org/1999/xlink" width="200" height="200"><defs><style type="text/css"></style></defs><path d="M978.74524 466.74518 544.00085 32.00086 544 31.99998c-17.6731-17.6731-46.32687-17.6731-63.99997 0L480 32.00001 45.25476 466.74518c-24.99353 24.99353-24.99353 65.51605 0 90.50958l0.00012 6.0e-05C57.25714 569.25714 73.53583 576 90.50964 576L128 576l0 288c0 0 0 96 96 96l128 0c64 0 64-64.12549 64-64.12549L416 640l96 0 96 0 0 255.87451c0 0 0 64.12549 64 64.12549l128 0c96 0 96-96 96-96L896 576l37.49036 0c16.97382 0 33.2525-6.74286 45.25476-18.74518l0.00012-6.0e-05C1003.73877 532.26123 1003.73877 491.73871 978.74524 466.74518z" p-id="3933" fill="#8a8a8a"></path></svg>