<?xml version="1.0" standalone="no"?><!DOCTYPE svg PUBLIC "-//W3C//DTD SVG 1.1//EN" "http://www.w3.org/Graphics/SVG/1.1/DTD/svg11.dtd"><svg t="1498198104037" class="icon" style="" viewBox="0 0 1024 1024" version="1.1" xmlns="http://www.w3.org/2000/svg" p-id="3934" xmlns:xlink="http://www.w3.org/1999/xlink" width="200" height="200"><defs><style type="text/css"></style></defs><path d="M896.663358 302.733882c0 16.954137-13.745049 30.699186-30.699186 30.699186L158.386822 333.433068c-16.954137 0-30.699186-13.745049-30.699186-30.699186l0-30.757514c0-16.954137 13.745049-30.699186 30.699186-30.699186l707.577351 0c16.954137 0 30.699186 13.745049 30.699186 30.699186L896.663358 302.733882z" p-id="3935" fill="#bfbfbf"></path><path d="M896.663358 750.520395c0 16.954137-13.745049 30.699186-30.699186 30.699186L158.386822 781.219581c-16.954137 0-30.699186-13.745049-30.699186-30.699186l0-30.758538c0-16.954137 13.745049-30.699186 30.699186-30.699186l707.577351 0c16.954137 0 30.699186 13.745049 30.699186 30.699186L896.663358 750.520395z" p-id="3936" fill="#bfbfbf"></path><path d="M896.663358 529.933441c0 16.954137-13.745049 30.699186-30.699186 30.699186L158.386822 560.632627c-16.954137 0-30.699186-13.745049-30.699186-30.699186l0-30.757514c0-16.954137 13.745049-30.699186 30.699186-30.699186l707.577351 0c16.954137 0 30.699186 13.745049 30.699186 30.699186L896.663358 529.933441z" p-id="3937" fill="#bfbfbf"></path></svg>