<?xml version="1.0" standalone="no"?><!DOCTYPE svg PUBLIC "-//W3C//DTD SVG 1.1//EN" "http://www.w3.org/Graphics/SVG/1.1/DTD/svg11.dtd"><svg t="1497974276079" class="icon" style="" viewBox="0 0 1024 1024" version="1.1" xmlns="http://www.w3.org/2000/svg" p-id="3368" xmlns:xlink="http://www.w3.org/1999/xlink" width="200" height="200" fill="#b2b2b2"><defs><style type="text/css"></style></defs><path d="M284.416 118.016l711.168 0C1011.2768 118.016 1024 105.2928 1024 89.6c0-15.6928-12.7232-28.416-28.416-28.416L284.416 61.184C268.7232 61.184 256 73.9072 256 89.6 256 105.2928 268.7232 118.016 284.416 118.016z" p-id="3369"></path><path d="M125.184 61.184 28.416 61.184C12.7232 61.184 0 73.9072 0 89.6c0 15.6928 12.7232 28.416 28.416 28.416l96.768 0C140.8768 118.016 153.6 105.2928 153.6 89.6 153.6 73.9072 140.8768 61.184 125.184 61.184z" p-id="3370"></path><path d="M995.584 342.784 284.416 342.784c-15.6928 0-28.416 12.7232-28.416 28.416 0 15.6928 12.7232 28.416 28.416 28.416l711.168 0c15.6928 0 28.416-12.7232 28.416-28.416C1024 355.5072 1011.2768 342.784 995.584 342.784z" p-id="3371"></path><path d="M125.184 342.784 28.416 342.784C12.7232 342.784 0 355.5072 0 371.2c0 15.6928 12.7232 28.416 28.416 28.416l96.768 0C140.8768 399.616 153.6 386.8928 153.6 371.2 153.6 355.5072 140.8768 342.784 125.184 342.784z" p-id="3372"></path><path d="M585.984 905.984 284.416 905.984c-15.6928 0-28.416 12.7232-28.416 28.3904 0 15.6928 12.7232 28.4416 28.416 28.4416l301.568 0c15.6928 0 28.416-12.7488 28.416-28.4416C614.4 918.7072 601.6768 905.984 585.984 905.984z" p-id="3373"></path><path d="M125.184 905.984 28.416 905.984C12.7232 905.984 0 918.7072 0 934.3744c0 15.6928 12.7232 28.4416 28.416 28.4416l96.768 0c15.6928 0 28.416-12.7488 28.416-28.4416C153.6 918.7072 140.8768 905.984 125.184 905.984z" p-id="3374"></path><path d="M585.984 624.384 284.416 624.384c-15.6928 0-28.416 12.7232-28.416 28.3904 0 15.6928 12.7232 28.4416 28.416 28.4416l301.568 0c15.6928 0 28.416-12.7488 28.416-28.4416C614.4 637.1072 601.6768 624.384 585.984 624.384z" p-id="3375"></path><path d="M125.184 624.384 28.416 624.384C12.7232 624.384 0 637.1072 0 652.7744c0 15.6928 12.7232 28.4416 28.416 28.4416l96.768 0c15.6928 0 28.416-12.7488 28.416-28.4416C153.6 637.1072 140.8768 624.384 125.184 624.384z" p-id="3376"></path><path d="M995.584 729.6256l-122.368 0 0-122.368c0-15.6928-12.7232-28.416-28.3904-28.416-15.6928 0-28.416 12.7232-28.416 28.416l0 122.368L694.016 729.6256c-15.6928 0-28.416 12.7232-28.416 28.416 0 15.6672 12.7232 28.3904 28.416 28.3904l122.3424 0L816.3584 908.8c0 15.6928 12.7232 28.416 28.416 28.416 15.6672 0 28.3904-12.7232 28.3904-28.416l0-122.3424 122.368 0c15.6928 0 28.416-12.7232 28.416-28.3904C1024 742.3488 1011.2768 729.6256 995.584 729.6256z" p-id="3377"></path></svg>