<?xml version="1.0" standalone="no"?><!DOCTYPE svg PUBLIC "-//W3C//DTD SVG 1.1//EN" "http://www.w3.org/Graphics/SVG/1.1/DTD/svg11.dtd"><svg t="1498027767730" class="icon" style="" viewBox="0 0 1109 1024" version="1.1" xmlns="http://www.w3.org/2000/svg" p-id="2494" xmlns:xlink="http://www.w3.org/1999/xlink" width="216.6015625" height="200" fill="#c2c2c2"><defs><style type="text/css"></style></defs><path d="M1097.628587 432.085333c-23.253333 95.872-76.8 182.869333-154.837334 251.776L551.452587 1024l-27.605334-24.362667L166.428587 683.648c-77.781333-68.693333-131.328-155.733333-154.538667-251.562667C-0.867413 379.52-1.976747 338.346667 2.16192 313.813333 19.015253 133.333333 152.647253 0 321.095253 0c90.069333 0 172.8 38.314667 231.253334 104.448A318.933333 318.933333 0 0 1 788.380587 0c168.106667 0 301.44 132.693333 318.805333 312.533333 4.266667 27.52 2.944 67.925333-9.557333 119.552z m-210.176 191.658667c65.493333-57.813333 110.208-130.517333 129.536-210.261333 10.154667-41.941333 11.008-72.234667 8.149333-89.6l-0.341333-2.730667c-13.141333-140.714667-112.938667-240.341333-236.416-240.341333-81.92 0-157.866667 42.88-200.917334 113.066666l-35.925333 58.624-35.413333-58.965333c-42.581333-71.04-114.773333-112.725333-194.986667-112.725333-123.477333 0-223.317333 99.626667-236.8 243.2-2.816 17.066667-2.005333 47.530667 8.149333 89.472 19.328 79.786667 64.042667 152.448 129.578667 210.261333l329.813333 291.626667 335.573334-291.626667z" p-id="2495"></path></svg>