<?xml version="1.0" standalone="no"?><!DOCTYPE svg PUBLIC "-//W3C//DTD SVG 1.1//EN" "http://www.w3.org/Graphics/SVG/1.1/DTD/svg11.dtd"><svg t="1498031702284" class="icon" style="" viewBox="0 0 1024 1024" version="1.1" xmlns="http://www.w3.org/2000/svg" p-id="4577" xmlns:xlink="http://www.w3.org/1999/xlink" width="200" height="200" fill="#b2b2b2"><defs><style type="text/css"></style></defs><path d="M991.713666 684.160012 684.205037 991.668641l-15.451924-15.451924 15.436574 15.467273c-20.838607 20.838607-48.557926 32.32215-78.019934 32.313963s-57.174164-11.483542-78.004585-32.344662L32.351825 495.862461c-22.800285-22.800285-34.463929-54.32221-32.003901-86.478584l21.986757-285.568944c4.036943-52.488445 49.116651-97.493451 101.544721-101.529371L409.416624 0.330528c32.163537-2.482541 63.677275 9.174963 86.484723 31.982412l495.806179 495.813343C1034.726296 571.147098 1034.733459 641.139196 991.713666 684.160012zM85.219917 85.178985c-11.242042 11.242042-18.092054 26.15059-19.322068 42.001603L43.925419 412.734182c-1.494027 19.420305 5.560646 38.455847 19.329231 52.224432l495.820506 495.797993c12.591783 12.591783 29.310559 19.533892 47.093575 19.541055 17.805528 0 34.532491-6.933923 47.117111-19.518542l0 0 307.523979-307.523979c25.969465-25.969465 25.976628-68.242244-0.007163-94.227058L464.9975 63.216787c-13.768585-13.769608-32.796964-20.816095-52.217269-19.322068L127.244033 65.848731C111.384833 67.071581 96.460935 73.936943 85.219917 85.178985z" p-id="4578" fill="#8a8a8a"></path><path d="M332.835458 332.767919c-34.087353 34.087353-89.548502 34.094516-123.627668 0.014326s-34.079166-89.518826 0.008186-123.606179c16.46295-16.46295 38.417985-25.53149 61.813834-25.523303 23.388686 0 45.336558 9.061376 61.798485 25.524327C366.908484 243.25728 366.907461 298.695916 332.835458 332.767919zM240.134149 240.065588c-17.051351 17.051351-17.058514 44.777833-0.022513 61.813834 17.043165 17.043165 44.770669 17.036002 61.806671 0l0.01535-0.01535c17.036002-17.036002 17.028838-44.748157-0.007163-61.784158C284.882306 223.036749 257.170151 223.029586 240.134149 240.065588z" p-id="4579" fill="#8a8a8a"></path></svg>